<?xml version="1.0" encoding="utf-8"?>
<!-- Generator: Adobe Illustrator 28.1.0, SVG Export Plug-In . SVG Version: 6.00 Build 0)  -->
<svg version="1.1" id="Calque_1" xmlns="http://www.w3.org/2000/svg" xmlns:xlink="http://www.w3.org/1999/xlink" x="0px" y="0px"
	 viewBox="0 0 488 90" style="enable-background:new 0 0 488 90;" xml:space="preserve">
<style type="text/css">
	.st0{fill:none;}
	.st1{font-family:'GillSans';}
	.st2{font-size:72px;}
	.st3{letter-spacing:7;}
</style>
<rect x="118" y="9.9" class="st0" width="357" height="50"/>
<text transform="matrix(1 0 0 1 118 58.9933)" class="st1 st2 st3">Pandiweb</text>
<g id="_x35_4c8ca41-f910-4170-8f82-6d26474b6f31" transform="matrix(0.9559017435520097,0,0,0.9559017435520097,130.7275691282621,56.520518426468094)">
	<path d="M13.8,21.6l-1.2-2.9H8.2l-1.1,2.9H6.3l3.7-9.2h0.8l3.7,9.2H13.8z M8.5,18.1h3.9l-1.6-4l-0.3-1h0L10.1,14L8.5,18.1z
		 M26.6,17.1h3.8v4.5h-0.6l0-1.6l0,0c-0.3,0.6-0.6,1-1.2,1.3l0,0l0,0c-0.5,0.3-1.2,0.4-2,0.4l0,0l0,0c-0.8,0-1.6-0.2-2.2-0.6l0,0
		l0,0c-0.6-0.4-1.1-0.9-1.5-1.7l0,0l0,0c-0.3-0.7-0.5-1.6-0.5-2.5l0,0l0,0c0-1,0.2-1.8,0.5-2.5l0,0l0,0c0.3-0.7,0.8-1.3,1.5-1.7l0,0
		l0,0c0.6-0.4,1.4-0.6,2.2-0.6l0,0l0,0c0.9,0,1.7,0.2,2.3,0.6l0,0l0,0c0.6,0.4,1,0.9,1.3,1.7l0,0l-0.6,0.3l0,0
		c-0.2-0.6-0.6-1.1-1.1-1.5l0,0l0,0c-0.5-0.3-1.1-0.5-1.9-0.5l0,0l0,0c-0.7,0-1.3,0.2-1.8,0.5l0,0l0,0c-0.5,0.3-0.9,0.8-1.2,1.4l0,0
		l0,0c-0.3,0.6-0.4,1.3-0.4,2.2l0,0l0,0c0,1.3,0.3,2.3,0.9,3l0,0l0,0c0.6,0.7,1.5,1.1,2.5,1.1l0,0l0,0c0.7,0,1.2-0.1,1.7-0.4l0,0
		l0,0c0.5-0.3,0.8-0.6,1-1.1l0,0l0,0c0.2-0.4,0.3-0.9,0.3-1.4l0,0v-0.5h-3.1V17.1z M40.5,21h5.8v0.6h-6.5v-9.2h6.3V13h-5.6v3.6H45
		v0.7h-4.4V21z M62.5,12.4v9.2h-0.9l-4.9-7.2l-0.7-1.2h0l0,1.2v7.3h-0.7v-9.2h0.9l4.9,7.2l0.7,1.2l0-1.2v-7.3H62.5z M79.7,19.3
		L79.7,19.3c-0.3,0.8-0.7,1.4-1.4,1.8l0,0l0,0c-0.7,0.4-1.4,0.6-2.3,0.6l0,0l0,0c-0.8,0-1.6-0.2-2.2-0.6l0,0l0,0
		c-0.6-0.4-1.1-0.9-1.5-1.7l0,0l0,0C72,18.8,71.8,18,71.8,17l0,0l0,0c0-1,0.2-1.8,0.5-2.5l0,0l0,0c0.3-0.7,0.8-1.3,1.5-1.7l0,0l0,0
		c0.6-0.4,1.4-0.6,2.2-0.6l0,0l0,0c1.8,0,3,0.8,3.6,2.3l0,0l-0.7,0.3l0,0c-0.2-0.7-0.6-1.1-1-1.5l0,0l0,0c-0.5-0.3-1.1-0.5-1.8-0.5
		l0,0l0,0c-0.7,0-1.3,0.2-1.8,0.5l0,0l0,0c-0.5,0.3-0.9,0.8-1.2,1.4l0,0l0,0c-0.3,0.6-0.4,1.3-0.4,2.2l0,0l0,0
		c0,0.8,0.1,1.6,0.4,2.2l0,0l0,0c0.3,0.6,0.7,1.1,1.2,1.4l0,0l0,0c0.5,0.3,1.1,0.5,1.8,0.5l0,0l0,0c0.7,0,1.4-0.2,1.9-0.5l0,0l0,0
		c0.5-0.4,0.9-0.9,1.1-1.6l0,0L79.7,19.3z M89.5,21h5.8v0.6h-6.5v-9.2h6.3V13h-5.6v3.6h4.4v0.7h-4.4V21z M118.6,12.4L118.6,12.4
		c1.5,0,2.6,0.4,3.4,1.2l0,0l0,0c0.8,0.8,1.2,1.9,1.2,3.4l0,0l0,0c0,1.5-0.4,2.7-1.2,3.5l0,0l0,0c-0.8,0.8-1.9,1.2-3.4,1.2l0,0h-2.9
		v-9.2H118.6z M118.7,21L118.7,21c1.2,0,2.2-0.4,2.8-1.1l0,0l0,0c0.7-0.7,1-1.7,1-3l0,0l0,0c0-1.3-0.3-2.2-1-2.9l0,0l0,0
		c-0.7-0.7-1.6-1-2.8-1l0,0h-2.3v8H118.7z M133.3,21h5.8v0.6h-6.5v-9.2h6.3V13h-5.6v3.6h4.4v0.7h-4.4V21z M164.1,15.1l-1.9,6.5h-0.9
		l-2.9-9.2h0.8l2.6,8.7l2.4-8.7h0.8l2.4,8.7l2.6-8.7h0.7l-2.9,9.2H167l-1.9-6.5l-0.5-2h0L164.1,15.1z M180.4,21h5.8v0.6h-6.5v-9.2
		h6.3V13h-5.6v3.6h4.4v0.7h-4.4V21z M195.2,21.6v-9.2h3.3l0,0c1,0,1.8,0.2,2.3,0.6l0,0l0,0c0.5,0.4,0.7,1,0.7,1.8l0,0l0,0
		c0,0.5-0.1,1-0.4,1.4l0,0l0,0c-0.3,0.4-0.7,0.6-1.2,0.7l0,0v0l0,0c0.6,0.1,1.1,0.3,1.4,0.7l0,0l0,0c0.4,0.4,0.5,0.9,0.5,1.5l0,0
		l0,0c0,0.8-0.3,1.4-0.9,1.8l0,0l0,0c-0.6,0.4-1.4,0.6-2.4,0.6l0,0H195.2z M195.9,16.6h2.6l0,0c1.5,0,2.2-0.6,2.2-1.8l0,0l0,0
		c0-1.2-0.8-1.8-2.2-1.8l0,0h-2.6V16.6z M195.9,21h2.7l0,0c0.8,0,1.4-0.2,1.8-0.5l0,0l0,0c0.4-0.3,0.6-0.8,0.6-1.4l0,0l0,0
		c0-0.6-0.2-1.1-0.6-1.4l0,0l0,0c-0.4-0.3-1-0.5-1.8-0.5l0,0h-2.7V21z M225.4,12.4L225.4,12.4c1.5,0,2.6,0.4,3.4,1.2l0,0l0,0
		c0.8,0.8,1.2,1.9,1.2,3.4l0,0l0,0c0,1.5-0.4,2.7-1.2,3.5l0,0l0,0c-0.8,0.8-1.9,1.2-3.4,1.2l0,0h-2.9v-9.2H225.4z M225.4,21
		L225.4,21c1.2,0,2.2-0.4,2.8-1.1l0,0l0,0c0.7-0.7,1-1.7,1-3l0,0l0,0c0-1.3-0.3-2.2-1-2.9l0,0l0,0c-0.7-0.7-1.6-1-2.8-1l0,0h-2.3v8
		H225.4z M240,21h5.8v0.6h-6.5v-9.2h6.3V13H240v3.6h4.4v0.7H240V21z M257.7,12.2L257.7,12.2c1.7,0,2.9,0.7,3.5,2l0,0l-0.6,0.5l0,0
		c-0.2-0.7-0.6-1.1-1.1-1.4l0,0l0,0c-0.5-0.3-1.1-0.4-1.8-0.4l0,0l0,0c-0.5,0-1,0.1-1.4,0.3l0,0l0,0c-0.4,0.2-0.7,0.4-0.9,0.7l0,0
		l0,0c-0.2,0.3-0.3,0.6-0.3,1l0,0l0,0c0,0.4,0.1,0.6,0.3,0.9l0,0l0,0c0.2,0.2,0.5,0.4,0.9,0.6l0,0l0,0c0.4,0.2,1,0.3,1.8,0.4l0,0
		l0,0c1.2,0.2,2.1,0.5,2.6,0.9l0,0l0,0c0.5,0.4,0.8,0.9,0.8,1.6l0,0l0,0c0,0.5-0.1,0.9-0.4,1.3l0,0l0,0c-0.3,0.4-0.7,0.7-1.2,0.9
		l0,0l0,0c-0.5,0.2-1.1,0.3-1.8,0.3l0,0l0,0c-1,0-1.8-0.2-2.5-0.6l0,0l0,0c-0.7-0.4-1.1-0.9-1.4-1.6l0,0l0.6-0.5l0,0
		c0.2,0.7,0.6,1.2,1.1,1.5l0,0l0,0c0.6,0.4,1.3,0.5,2.1,0.5l0,0l0,0c0.8,0,1.5-0.2,2-0.5l0,0l0,0c0.5-0.3,0.8-0.8,0.8-1.4l0,0l0,0
		c0-0.5-0.2-0.9-0.6-1.2l0,0l0,0c-0.4-0.3-1.1-0.5-2.2-0.7l0,0l0,0c-0.9-0.2-1.6-0.3-2.1-0.5l0,0l0,0c-0.5-0.2-0.9-0.5-1.1-0.8l0,0
		l0,0c-0.2-0.3-0.3-0.7-0.3-1.2l0,0l0,0c0-0.5,0.1-0.9,0.4-1.3l0,0l0,0c0.3-0.4,0.7-0.7,1.2-1l0,0l0,0
		C256.5,12.4,257.1,12.2,257.7,12.2L257.7,12.2z M271.2,12.4v9.2h-0.7v-9.2H271.2z M284.7,17.1h3.8v4.5h-0.6l0-1.6l0,0
		c-0.3,0.6-0.6,1-1.2,1.3l0,0l0,0c-0.5,0.3-1.2,0.4-2,0.4l0,0l0,0c-0.8,0-1.6-0.2-2.2-0.6l0,0l0,0c-0.6-0.4-1.1-0.9-1.4-1.7l0,0l0,0
		c-0.3-0.7-0.5-1.6-0.5-2.5l0,0l0,0c0-1,0.2-1.8,0.5-2.5l0,0l0,0c0.4-0.7,0.8-1.3,1.5-1.7l0,0l0,0c0.6-0.4,1.4-0.6,2.2-0.6l0,0l0,0
		c0.9,0,1.7,0.2,2.3,0.6l0,0l0,0c0.6,0.4,1,0.9,1.3,1.7l0,0l-0.6,0.3l0,0c-0.2-0.6-0.6-1.1-1.1-1.5l0,0l0,0
		c-0.5-0.3-1.2-0.5-1.9-0.5l0,0l0,0c-0.7,0-1.3,0.2-1.8,0.5l0,0l0,0c-0.5,0.3-0.9,0.8-1.2,1.4l0,0l0,0c-0.3,0.6-0.4,1.3-0.4,2.2l0,0
		l0,0c0,1.3,0.3,2.3,0.9,3l0,0l0,0c0.6,0.7,1.5,1.1,2.5,1.1l0,0l0,0c0.7,0,1.2-0.1,1.7-0.4l0,0l0,0c0.5-0.3,0.8-0.6,1-1.1l0,0l0,0
		c0.2-0.4,0.3-0.9,0.3-1.4l0,0v-0.5h-3.1V17.1z M305.1,12.4v9.2h-0.9l-4.9-7.2l-0.7-1.2h0l0,1.2v7.3H298v-9.2h0.9l4.9,7.2l0.7,1.2
		l0-1.2v-7.3H305.1z"/>
</g>
<image style="overflow:visible;" width="533" height="533" xlink:href="logo.png"  transform="matrix(0.1707 0 0 0.167 15.0009 0.8898)">
</image>
</svg>
